# xmcd CD database file
#
# Track frame offsets:
#	151
#	18124
#	41866
#	69218
#	86442
#	110429
#	133927
#	149231
#	186745
#	214177
#	228440
#	245994
#	276279
#
# Disc length: 4030 seconds
#
# Revision: 0
# Processed by: cddbd v1.5.2PL0 Copyright (c) Steve Scherf et al.
# Submitted via: CDex 1.51
#
DISCID=cf0fbc0d
DTITLE=Ripoff Raskolnikov - Everything Is Temporary
DYEAR=2006
DGENRE=Blues
TTITLE0=Higway 5
TTITLE1=Senile Insomnia
TTITLE2=Set Designer Blues
TTITLE3=Two - Point - Tw Re - Run
TTITLE4=Ain´t Nothing Sadder
TTITLE5=Souls  Ringing In Tune
TTITLE6=Watertown Blues
TTITLE7=Near Miss
TTITLE8=Quinquagenarian Blues
TTITLE9=Rosie
TTITLE10=Good Week
TTITLE11=Toll - Gate Blues
TTITLE12=Temporary
EXTD=YEAR: 2006
EXTT0=
EXTT1=
EXTT2=
EXTT3=
EXTT4=
EXTT5=
EXTT6=
EXTT7=
EXTT8=
EXTT9=
EXTT10=
EXTT11=
EXTT12=
PLAYORDER=
